<svg xmlns="http://www.w3.org/2000/svg" viewBox="0 0 168 168"><defs><style>.cls-1{fill:#47a046;}.cls-2{fill:#5cb24b;}.cls-3{fill:#bdd134;}.cls-4{fill:#f9ce86;}</style></defs><g id="Calque_15" data-name="Calque 15"><path class="cls-1" d="M84,12.17c29.42.61,51.59,13.78,65.35,39.57C173.64,97.21,143.91,153,92.76,158.85c-2.91.34-5.79.85-8.73.44q0-14.83,0-29.67c9.76-.44,17.06-5.29,22.86-12.77.93-1.21,1.57-2.81,3.51-2.32s1.07,2.26,1.3,3.49c.34,1.85,1.22,3.16,3.25,3.1,2.27-.07,2.58-1.71,2.57-3.52s0-3.89,0-5.84c0-1.36-.44-2.91-1.82-2.87-5.44.18-3.21-2.9-2.58-5.46a34.82,34.82,0,0,0,1-5.73c.14-1.86.21-3.67,2.07-4.68s2.63.94,3.81,1.69a3.42,3.42,0,0,0,3.92.1,2.18,2.18,0,0,0,.85-2.94c-1.72-2.7-4-6.39-6.73-6.29-4.48.18-4.11-2.56-5-5s-2-4.58-3-6.84c-.65-1.38-2.44-2.53-.38-4.24s2.68.31,3.68,1.2,2.29,1.6,3.77,1c.95-.39,1.89-1.22,1.73-2.15-.65-3.76-3.78-5.66-6.5-7.7-2.25-1.69-3.33.86-4.83,1.9s-2,3.65-4.2,2.53c-2.06-1-4.35-1.89-4.51-5.24a15.69,15.69,0,0,0-5.22-11c-.72-.65-1.52-1.38-.55-2.44a1.42,1.42,0,0,1,2.19-.06c.88.72,1.93,1.55,2.84.26s0-2.29-.85-3.31c-1.9-2.33-3.71-3.21-5.93-.31-1.84,2.4-4.09,3.84-7.16,1.9Q84,29.1,84,12.17Z"/><path class="cls-2" d="M84,12.17q0,16.94,0,33.88a3.66,3.66,0,0,0-.1.74c-2.72.3-5-.08-7-2.41-2.51-2.9-4.22-2.52-6.4.76-.6.89-1,1.72-.15,2.61a1.42,1.42,0,0,0,2.19,0c.92-.79,1.85-1.39,2.82-.13s-.24,2-.94,2.74c-2.54,2.71-4.68,5.81-4.51,9.54s-2.09,5.21-4.72,6.44-3.59-1.57-4.83-2.87c-2.43-2.55-4.39-2.43-6.58.08a27.54,27.54,0,0,1-2.35,2.36c-1.59,1.45-2.65,3.27-1.09,5.07,1.75,2,3.47.66,4.92-.85,1-1,1.86-2,3.42-.57,1.37,1.31,1,2.37.08,3.61a28.56,28.56,0,0,0-4.31,10.3c-.18.77,0,2.56-1.25,2.15-4.63-1.6-5.94,2.58-8.49,4.54-1.49,1.15-2.1,2.75-.59,4.3s2.92.95,4.43-.18c3.3-2.45,5-1.66,5.42,2.52a35.81,35.81,0,0,0,1.95,8.91c.76,2.14.54,3.09-1.95,3.07-1.84,0-3.48.8-3.27,2.9.31,3-1.51,6.61,1.34,9,1.5,1.27,3.22.23,4-1.57a8.22,8.22,0,0,0,.3-2.46c.08-1-.08-2,1.28-2.23a2.56,2.56,0,0,1,2.64.81c.58.78,1.11,1.6,1.72,2.35,5.7,7,12.53,11.75,22,11.65l.09.38q0,14.83,0,29.67c-31.12,1.48-62-21.78-71-53.4A73.6,73.6,0,0,1,77,12.48C79.33,12.25,81.67,11.74,84,12.17Z"/><path class="cls-3" d="M83.92,46.79a3.66,3.66,0,0,1,.1-.74c3.07,1.94,5.32.5,7.16-1.9,2.22-2.9,4-2,5.93.31.83,1,1.73,2.06.85,3.31s-2,.46-2.84-.26a1.42,1.42,0,0,0-2.19.06c-1,1.06-.17,1.79.55,2.44A15.69,15.69,0,0,1,98.7,61c.16,3.35,2.45,4.2,4.51,5.24,2.21,1.12,2.84-1.58,4.2-2.53s2.58-3.59,4.83-1.9c2.72,2,5.85,3.94,6.5,7.7.16.93-.78,1.76-1.73,2.15-1.48.59-2.64,0-3.77-1s-1.7-2.84-3.68-1.2-.27,2.86.38,4.24c1.06,2.26,2.16,4.51,3,6.84s.54,5.19,5,5c2.73-.1,5,3.59,6.73,6.29a2.18,2.18,0,0,1-.85,2.94,3.42,3.42,0,0,1-3.92-.1C118.77,94,118.08,92,116.14,93s-1.93,2.82-2.07,4.68a34.82,34.82,0,0,1-1,5.73c-.63,2.56-2.86,5.64,2.58,5.46,1.38,0,1.82,1.51,1.82,2.87,0,1.95,0,3.89,0,5.84s-.3,3.45-2.57,3.52c-2,.06-2.91-1.25-3.25-3.1-.23-1.23.7-3-1.3-3.49s-2.58,1.11-3.51,2.32c-5.8,7.48-13.1,12.33-22.86,12.77l-.08-.38Q83.92,88,83.92,46.79Z"/><path class="cls-4" d="M83.92,46.79q0,41.22,0,82.45c-9.45.1-16.28-4.7-22-11.65-.61-.75-1.14-1.57-1.72-2.35a2.56,2.56,0,0,0-2.64-.81c-1.36.19-1.2,1.28-1.28,2.23a8.22,8.22,0,0,1-.3,2.46c-.77,1.8-2.49,2.84-4,1.57-2.85-2.43-1-6-1.34-9-.21-2.1,1.43-2.93,3.27-2.9,2.49,0,2.71-.93,1.95-3.07A35.81,35.81,0,0,1,54,96.77c-.37-4.18-2.12-5-5.42-2.52-1.51,1.13-3,1.66-4.43.18s-.9-3.15.59-4.3c2.55-2,3.86-6.14,8.49-4.54,1.21.41,1.07-1.38,1.25-2.15a28.56,28.56,0,0,1,4.31-10.3c.89-1.24,1.29-2.3-.08-3.61-1.56-1.48-2.43-.46-3.42.57-1.45,1.51-3.17,2.87-4.92.85-1.56-1.8-.5-3.62,1.09-5.07a27.54,27.54,0,0,0,2.35-2.36c2.19-2.51,4.15-2.63,6.58-.08,1.24,1.3,2.13,4.12,4.83,2.87s4.89-2.68,4.72-6.44,2-6.83,4.51-9.54c.7-.75,2-1.41.94-2.74s-1.9-.66-2.82.13a1.42,1.42,0,0,1-2.19,0c-.82-.89-.45-1.72.15-2.61,2.18-3.28,3.89-3.66,6.4-.76C78.89,46.71,81.2,47.09,83.92,46.79Z"/></g></svg>