<svg xmlns="http://www.w3.org/2000/svg" viewBox="0 0 168 168"><defs><style>.cls-1{fill:#b32384;}.cls-2{fill:#f4ba1b;}.cls-3{fill:#f28c24;}</style></defs><g id="Calque_17" data-name="Calque 17"><path class="cls-1" d="M157.7,86.89c-1.44,41.18-37,73.56-78.31,70.57C37.63,154.45,7,119,10.51,78a73.38,73.38,0,0,1,78-67.5C130.59,13,159.3,48.63,157.7,86.89ZM84,34.65c7.52-2.43,15.13-4,23.12-2.3a48.55,48.55,0,0,0-23.43-5.08A56.67,56.67,0,0,0,28.57,97.21c6,25.46,30.61,44.88,55.17,43.56,3.93.7,7.78-.2,11.53-1,30-6.56,48.68-32.72,45.21-63.36-.3-2.69-.48-5.55-2.39-8.53-.23,14.87-5.59,26.55-17.6,34.61-11.51,7.72-23.91,7.9-36.67,3.55C69.67,98.92,61.1,87.7,60.65,71.73,60.17,54.52,68.74,42.31,84,34.65Z"/><path class="cls-2" d="M83.74,140.77c-24.56,1.32-49.15-18.1-55.17-43.56A56.67,56.67,0,0,1,83.71,27.27c.1,2.46.21,4.92.31,7.38C68.74,42.31,60.17,54.52,60.65,71.73c.45,16,9,27.19,23.17,34.29Q83.78,123.39,83.74,140.77Z"/><path class="cls-3" d="M83.74,140.77q0-17.37.08-34.75c12.76,4.35,25.16,4.17,36.67-3.55,12-8.06,17.37-19.74,17.6-34.61,1.91,3,2.09,5.84,2.39,8.53,3.47,30.64-15.17,56.8-45.21,63.36C91.52,140.57,87.67,141.47,83.74,140.77Z"/><path class="cls-3" d="M84,34.65c-.1-2.46-.21-4.92-.31-7.38a48.55,48.55,0,0,1,23.43,5.08C99.15,30.69,91.54,32.22,84,34.65Z"/></g></svg>