<svg xmlns="http://www.w3.org/2000/svg" viewBox="0 0 168 168"><defs><style>.cls-1{fill:#f4ba1b;}.cls-2{fill:#f28c24;}.cls-3{fill:#fefefe;}</style></defs><g id="Calque_8" data-name="Calque 8"><path class="cls-1" d="M82.59,157.37c-32.45,1.52-63.45-23.11-71.54-56.84C.35,55.92,35.07,10.9,80.51,10.47c.69,0,1.39.09,2.08.13V38.14l.78.13,8.06-11.76.92.4q-4.55,16.93-9.07,33.85c-1.16-6.49.1-13.1-.73-19.76-.51.29-.82.35-.93.53Q61,73.3,40.4,105.09c-.56.86-1.57,1.91-.56,3s2.13.18,3.11-.16c12.48-4.24,24.93-8.56,37.41-12.78,1.67-.56,2.52-1.3,2.48-3.19-.1-5,0-10-.06-15,0-.87.34-2.31-1-2.3-2.54,0-1.8-1.5-1.46-2.74.61-2.26,1.38-4.48,2.08-6.71.06.83.16,1.66.18,2.49.15,6.14.33,6.3,6.07,4.35,11.16-3.8,22.31-7.66,33.48-11.43,1.35-.46,3.09-1.83,4.19-.28.85,1.2-.7,2.47-1.43,3.61-9.81,15.28-19.45,30.66-29.49,45.79-4,6-7.17,12.46-12.16,17.72V108.73l-.92-.1Q78,124.74,73.73,140.85l.93.41q3.82-5.56,7.66-11.11Z"/><path class="cls-2" d="M83.28,60.76q4.53-16.92,9.07-33.85l-.92-.4L83.37,38.27l-.78-.13V10.6c31.09-1.77,61.91,21.12,71.22,52.9,13.53,46.19-20.75,93.09-68.74,94-.83,0-1.66-.11-2.48-.16l-.27-27.22c.3-.91.6-1.82.89-2.73,5-5.26,8.2-11.76,12.16-17.72,10-15.13,19.68-30.51,29.49-45.79.73-1.14,2.28-2.41,1.43-3.61-1.1-1.55-2.84-.18-4.19.28C110.93,64.35,99.78,68.21,88.62,72,82.88,74,82.7,73.8,82.55,67.66c0-.83-.12-1.66-.18-2.49C82.67,63.7,83,62.23,83.28,60.76Z"/><path class="cls-3" d="M83.28,60.76c-.31,1.47-.61,2.94-.91,4.41-.7,2.23-1.47,4.45-2.08,6.71-.34,1.24-1.08,2.76,1.46,2.74,1.37,0,1,1.43,1,2.3,0,5,0,10,.06,15,0,1.89-.81,2.63-2.48,3.19C67.88,99.32,55.43,103.64,43,107.88c-1,.34-2.19,1.13-3.11.16s0-2.09.56-3Q61,73.29,81.62,41.53c.11-.18.42-.24.93-.53C83.38,47.66,82.12,54.27,83.28,60.76Z"/><path class="cls-3" d="M83.21,127.42c-.29.91-.59,1.82-.89,2.73q-3.82,5.55-7.66,11.11l-.93-.41q4.29-16.11,8.56-32.22l.92.1Z"/></g></svg>