<svg xmlns="http://www.w3.org/2000/svg" viewBox="0 0 168 168"><defs><style>.cls-1{fill:#901c1c;}.cls-2{fill:#b92527;}.cls-3{fill:#bdd134;}.cls-4{fill:#f9ce86;}</style></defs><g id="Calque_14" data-name="Calque 14"><path class="cls-1" d="M84.1,10.41c30-.38,60.87,19.3,70.74,53.24,13.19,45.35-19.77,91.53-67,94-1.24.06-2.5-.05-3.75-.08V136.42c4.43-.11,8.86-.15,13.28-.34,4.22-.18,6.66-2.55,6.95-6.7a54,54,0,0,0,0-6.23c-.22-4.58-2.75-7.05-7.38-7.19-4.29-.13-8.58-.16-12.87-.24,0-1.13,0-2.26,0-3.39,10.69-.09,21.37-.15,32.05-.28,4.67-.06,7.8-2.79,7.92-7.25q.27-10.18,0-20.38c-.12-4.64-3.08-7.46-7.7-7.55q-9-.2-17.91,0c-4.82.1-7.55,3-7.65,8A64.81,64.81,0,0,0,90.85,94c.46,3.92-1.25,4.94-4.7,4.39-.68-.11-1.38-.17-2.06-.24,0-1.81-.07-3.62-.11-5.43,0-.18.07-.36.11-.54,4.24-4.5,4.22-8.44-.07-12.9a3.71,3.71,0,0,1-.11-.58Zm20.26,45.31c0-3.06.09-6.12,0-9.17-.19-5.22-3.72-8.8-8.61-8.86a8.68,8.68,0,0,0-9,8.12c-.31,6.39-.31,12.8,0,19.18.22,4.82,4.19,8,9.08,7.89s8.29-3.37,8.52-8.4C104.47,61.57,104.36,58.64,104.36,55.72Zm19.73,1.51h0c0-2.77.21-5.57,0-8.32a7.71,7.71,0,0,0-8.19-7.2,7.6,7.6,0,0,0-7.56,7.78c-.13,5.14-.11,10.28,0,15.42.1,4.94,3.09,7.94,7.69,8s7.81-3,8.12-7.73C124.24,62.52,124.09,59.87,124.09,57.23Z"/><path class="cls-2" d="M84.1,10.41Q84,44.55,83.91,78.69c-1.8-.7-3.43-1.82-5.49-1.82-9,0-18.1-.08-27.14,0-4.5.07-7.29,2.94-7.36,7.36q-.16,10.22,0,20.43c.07,4.57,2.71,7.17,7.32,7.32,4,.13,8.08.1,12.11,0,5-.09,7.72-2.68,8-7.64a57.67,57.67,0,0,0,0-7.08c-.13-2.23.81-2.93,2.94-2.84,3.33.15,6.71.35,9.63-1.78,0,1.81.07,3.62.11,5.43a4.94,4.94,0,0,1-.27.42c-5.43-.17-8.62,2.19-8.77,6.48s3.17,7,8.77,6.88c.09.13.18.27.26.41v3.39c-.08.14-.17.27-.26.4-3.75-.05-7.5-.16-11.25-.13-4.07,0-6.48,2.24-7.23,6.15a20.78,20.78,0,0,0,0,7.86c.76,3.88,3.15,6.13,7.22,6.17,3.75,0,7.5-.09,11.25-.14l.26.39v21.15c-33.74,1.51-66.8-25.65-72.67-59.69C4.25,56.23,30.05,19.12,71.66,11.37A47.19,47.19,0,0,1,84.1,10.41Zm-1,42.07c0-3.74.08-7.48,0-11.22-.14-5.43-3.67-9.27-8.52-9.44a8.7,8.7,0,0,0-9.32,8.62c-.3,8-.32,16.08.05,24.09.25,5.43,4.28,8.57,9.48,8.32,4.79-.24,8.13-3.82,8.31-9.15C83.2,60,83.1,56.22,83.1,52.48ZM43.9,55.25h0V64c0,.28,0,.56,0,.83a8.36,8.36,0,0,0,8.44,8c4.69.13,8.77-2.84,9-7.39a192.59,192.59,0,0,0,0-20C61.17,41,57,37.64,52.6,37.7a8.84,8.84,0,0,0-8.67,8.4C43.78,49.15,43.9,52.2,43.9,55.25Z"/><path class="cls-3" d="M84.09,98.14c.68.07,1.38.13,2.06.24,3.45.55,5.16-.47,4.7-4.39a64.81,64.81,0,0,1-.06-9.14c.1-4.94,2.83-7.88,7.65-8q8.94-.2,17.91,0c4.62.09,7.58,2.91,7.7,7.55q.27,10.18,0,20.38c-.12,4.46-3.25,7.19-7.92,7.25-10.68.13-21.36.19-32,.28-.08-.14-.17-.28-.26-.41V98.56A4.94,4.94,0,0,0,84.09,98.14Z"/><path class="cls-4" d="M84,92.71c-2.92,2.13-6.3,1.93-9.63,1.78-2.13-.09-3.07.61-2.94,2.84a57.67,57.67,0,0,1,0,7.08c-.32,5-3.06,7.55-8,7.64-4,.08-8.08.11-12.11,0-4.61-.15-7.25-2.75-7.32-7.32q-.16-10.21,0-20.43c.07-4.42,2.86-7.29,7.36-7.36,9-.13,18.09,0,27.14,0,2.06,0,3.69,1.12,5.49,1.82a3.71,3.71,0,0,0,.11.58q0,6.45.07,12.9C84.05,92.35,84,92.53,84,92.71Z"/><path class="cls-3" d="M104.36,55.72c0,2.92.11,5.85,0,8.76-.23,5-3.63,8.3-8.52,8.4S87,69.81,86.74,65c-.29-6.38-.29-12.79,0-19.18a8.68,8.68,0,0,1,9-8.12c4.89.06,8.42,3.64,8.61,8.86C104.45,49.6,104.36,52.66,104.36,55.72Z"/><path class="cls-3" d="M124.09,57.23c0,2.64.15,5.29,0,7.92-.31,4.75-3.56,7.75-8.12,7.73s-7.59-3-7.69-8c-.1-5.14-.12-10.28,0-15.42a7.6,7.6,0,0,1,7.56-7.78,7.71,7.71,0,0,1,8.19,7.2c.26,2.75,0,5.55,0,8.32Z"/><path class="cls-3" d="M84.09,115.72c4.29.08,8.58.11,12.87.24,4.63.14,7.16,2.61,7.38,7.19a54,54,0,0,1,0,6.23c-.29,4.15-2.73,6.52-6.95,6.7-4.42.19-8.85.23-13.28.34l-.26-.39V116.12C83.92,116,84,115.86,84.09,115.72Z"/><path class="cls-3" d="M84.09,92.17q0-6.45-.07-12.9C88.31,83.73,88.33,87.67,84.09,92.17Z"/><path class="cls-4" d="M83.1,52.48c0,3.74.1,7.49,0,11.22-.18,5.33-3.52,8.91-8.31,9.15-5.2.25-9.23-2.89-9.48-8.32-.37-8-.35-16.07-.05-24.09a8.7,8.7,0,0,1,9.32-8.62c4.85.17,8.38,4,8.52,9.44C83.18,45,83.1,48.74,83.1,52.48Z"/><path class="cls-4" d="M43.9,55.25c0-3-.12-6.1,0-9.15a8.84,8.84,0,0,1,8.67-8.4c4.38-.06,8.57,3.29,8.79,7.81a192.59,192.59,0,0,1,0,20C61.12,70,57,73,52.35,72.86a8.36,8.36,0,0,1-8.44-8c0-.27,0-.55,0-.83V55.25Z"/><path class="cls-4" d="M83.83,116.12V136c-3.75.05-7.5.17-11.25.14-4.07,0-6.46-2.29-7.22-6.17a20.78,20.78,0,0,1,0-7.86c.75-3.91,3.16-6.11,7.23-6.15C76.33,116,80.08,116.07,83.83,116.12Z"/><path class="cls-4" d="M83.82,98.56v13.36c-5.6.17-8.93-2.44-8.77-6.88S78.39,98.39,83.82,98.56Z"/></g></svg>