<svg xmlns="http://www.w3.org/2000/svg" viewBox="0 0 168 168"><defs><style>.cls-1{fill:#1fafe1;}.cls-2{fill:#1687b4;}.cls-3{fill:#fefefe;}</style></defs><g id="Calque_16" data-name="Calque 16"><path class="cls-1" d="M83.84,156.32c-29.61.51-61.16-19.06-70.88-53.43A73.66,73.66,0,0,1,72.66,10c3.67-.58,7.41-1.27,11.19-.75q0,24.68.07,49.37c-11.08,8.37-22.2,16.71-33.24,25.15-4.66,3.56-8.89,7.6-11.85,12.75-6.7,11.68-3,26,8.41,32.65,12.13,7.07,23.27,4,30.8-8.5,1.57-2.61,3.3-3.16,5.79-1.49Q83.83,137.73,83.84,156.32Z"/><path class="cls-2" d="M83.92,58.57q0-24.69-.07-49.37C112.2,9.64,134,22.05,148,46.43c26.4,45.82-2.82,103-55.44,109.47a34.36,34.36,0,0,1-8.71.42q0-18.6,0-37.19c5.54,2,10,6.05,15.45,8.11,4.22,1.58,6.21.16,5.7-4.33-.37-3.3-1.25-6.54-1.89-9.81-.57-2.94.49-4.61,3.67-4.45,4,.2,8,.48,12.07.68,3.33.16,6.67.32,10,.36,1.25,0,2.67-.26,3.08-1.65.37-1.21-.69-2.05-1.53-2.74a25.18,25.18,0,0,0-3.42-2.38c-4.47-2.54-9.07-4.86-13.44-7.56-3.67-2.28-3.59-3.84.13-5.87,2.55-1.4,5.29-2.45,7.94-3.67,3-1.39,6.12-2.66,9-4.24,2-1.11,2.12-2.55-.3-3.45a30.38,30.38,0,0,0-4-1.12c-4.88-1.11-9.83-1.93-14.62-3.33-3.88-1.13-4.37-2.7-2.16-6.13,2.48-3.85,5.26-7.51,8-11.2,4-5.37,8.33-10.46,11.31-16.47.89-1.8,2.41-3.88.69-5.78s-4.13-1.12-6.26-.45a50.5,50.5,0,0,0-12.93,6.67C101.48,46.32,92.72,52.48,83.92,58.57Z"/><path class="cls-3" d="M83.92,58.57c8.8-6.09,17.56-12.25,26.42-18.25a50.5,50.5,0,0,1,12.93-6.67c2.13-.67,4.52-1.47,6.26.45s.2,4-.69,5.78c-3,6-7.35,11.1-11.31,16.47-2.72,3.69-5.5,7.35-8,11.2-2.21,3.43-1.72,5,2.16,6.13,4.79,1.4,9.74,2.22,14.62,3.33a30.38,30.38,0,0,1,4,1.12c2.42.9,2.32,2.34.3,3.45-2.92,1.58-6,2.85-9,4.24-2.65,1.22-5.39,2.27-7.94,3.67-3.72,2-3.8,3.59-.13,5.87,4.37,2.7,9,5,13.44,7.56a25.18,25.18,0,0,1,3.42,2.38c.84.69,1.9,1.53,1.53,2.74-.41,1.39-1.83,1.67-3.08,1.65-3.33,0-6.67-.2-10-.36-4-.2-8-.48-12.07-.68-3.18-.16-4.24,1.51-3.67,4.45.64,3.27,1.52,6.51,1.89,9.81.51,4.49-1.48,5.91-5.7,4.33-5.49-2.06-9.91-6.14-15.45-8.11-2.49-1.67-4.22-1.12-5.79,1.49-7.53,12.54-18.67,15.57-30.8,8.5-11.4-6.64-15.11-21-8.41-32.65,3-5.15,7.19-9.19,11.85-12.75C61.72,75.28,72.84,66.94,83.92,58.57Z"/></g></svg>