<svg xmlns="http://www.w3.org/2000/svg" viewBox="0 0 168 168"><defs><style>.cls-1{fill:#8c7f73;}.cls-2{fill:#755d46;}.cls-3{fill:#fefefe;}</style></defs><g id="Calque_11" data-name="Calque 11"><path class="cls-1" d="M83.78,157.42c-32.61,1.5-64.93-24.17-71.84-57C3.25,59,28.27,20.63,69.74,11.85a45.63,45.63,0,0,1,14.08-1.2V26c-1.25.13-2.49.24-3.73.4-26.35,3.3-46.28,15.78-57.43,40.5a51.6,51.6,0,0,0-4.78,23.25c2.48-1.06,3.23-3,4.31-4.44,4.09-5.67,8.33-11.28,14.37-15,13.75-8.37,29.25-9,40.26,5.17A69.61,69.61,0,0,1,84.6,88.15c-1.42,1.38-.77,3.16-.78,4.74Q83.75,125.16,83.78,157.42Z"/><path class="cls-2" d="M83.78,157.42q0-32.26,0-64.53c0-1.58-.64-3.36.78-4.74,1.8,3,3.54,6,5.4,8.89a38.85,38.85,0,0,0,12.34,12.2c10.78,6.75,22.71,5.29,31.42-3.95A37.14,37.14,0,0,0,143.85,80.8c.94-20.83-11.78-40.63-31.22-49.39-9.2-4.14-18.89-5.29-28.81-5.44V10.65c31.49-1.75,62.52,21.92,71.4,54.48,12.4,45.5-21.83,91.4-69,92.45C85.43,157.6,84.6,157.48,83.78,157.42Zm13.73-34.64c2-.06,4.61,1.82,5.33-1.8s-3.16-8.81-7.17-9.4a8.06,8.06,0,0,0-9.47,7.11c-.1,1.44,0,3.45,1.66,3.13C91.27,121.18,94.18,123.83,97.51,122.78Zm52.1-15c-.39-2.65-1.44-5.11-4.3-6.37s-4.53-.08-5.57,2.49-.51,4.27,2.47,4.89a10.84,10.84,0,0,1,2.95,1.38c1,.57,1.48,2.36,3,1.53C149.51,110.91,149.49,109.36,149.61,107.73Z"/><path class="cls-3" d="M83.82,26c9.92.15,19.61,1.3,28.81,5.44C132.07,40.17,144.79,60,143.85,80.8a37.14,37.14,0,0,1-10.09,24.49c-8.71,9.24-20.64,10.7-31.42,3.95A38.85,38.85,0,0,1,90,97c-1.86-2.93-3.6-5.92-5.4-8.89a69.61,69.61,0,0,0-7.78-12.26c-11-14.21-26.51-13.54-40.26-5.17-6,3.68-10.28,9.29-14.37,15-1.08,1.49-1.83,3.38-4.31,4.44a51.6,51.6,0,0,1,4.78-23.25c11.15-24.72,31.08-37.2,57.43-40.5C81.33,26.21,82.57,26.1,83.82,26ZM109.5,104.9c3,.17,5.68-.65,7.28-3.19,1.71-2.7,0-5.1-1.56-7.24a30.23,30.23,0,0,0-10.22-9c-2.47-1.34-5.26-2.89-7.8-1-2.83,2.15-3.6,5.49-2.9,9C95.5,99.57,102.41,104.77,109.5,104.9Zm14.67-10.6c.78,2.43-.26,6.88,4.29,6.37s6.8-4.39,8.23-8.48a8.33,8.33,0,0,0-2.6-9.75c-2.79-2.36-5.36-1.86-7.29,1.24S124.43,90.43,124.17,94.3Z"/><path class="cls-3" d="M97.51,122.77c-3.33,1.06-6.24-1.59-9.65-1-1.69.32-1.76-1.69-1.66-3.13a8.06,8.06,0,0,1,9.47-7.11c4,.59,7.92,5.66,7.17,9.4S99.47,122.72,97.51,122.77Z"/><path class="cls-3" d="M149.61,107.73c-.12,1.63-.1,3.18-1.45,3.92-1.52.83-2-1-3-1.53a10.84,10.84,0,0,0-2.95-1.38c-3-.62-3.49-2.37-2.47-4.89s2.81-3.72,5.57-2.49S149.22,105.08,149.61,107.73Z"/><path class="cls-2" d="M109.5,104.9c-7.09-.13-14-5.33-15.2-11.41-.7-3.54.07-6.88,2.9-9,2.54-1.93,5.33-.38,7.8,1a30.23,30.23,0,0,1,10.22,9c1.54,2.14,3.27,4.54,1.56,7.24C115.18,104.25,112.47,105.07,109.5,104.9Z"/><path class="cls-2" d="M124.17,94.3c.26-3.87.65-7.45,2.63-10.62s4.5-3.6,7.29-1.24a8.33,8.33,0,0,1,2.6,9.75c-1.43,4.09-3.7,8-8.23,8.48S125,96.73,124.17,94.3Z"/></g></svg>