<svg xmlns="http://www.w3.org/2000/svg" viewBox="0 0 168 168"><defs><style>.cls-1{fill:#47a046;}.cls-2{fill:#5cb24b;}.cls-3{fill:#bdd134;}.cls-4{fill:#f9ce86;}</style></defs><g id="Calque_3" data-name="Calque 3"><path class="cls-1" d="M82.12,11.27c24.65.08,44.57,10.06,59.2,29.62C175,86,147.53,150.39,91.65,157.81a40.76,40.76,0,0,1-9.55.5q0-6.87,0-13.73c3-.11,2.61-2.21,2.47-4.14-.55-7.47,2.72-12.63,9.18-16.29,6.65-3.77,12.9-8.15,18-14,5.37-6.13,7.69-13,5.46-21.11-2-7.11-6.12-13-10.32-18.85C98.56,58.62,89.5,47.48,85.38,33.46a3.44,3.44,0,0,0-3.3-2.69Z"/><path class="cls-2" d="M82.08,144.58q0,6.85,0,13.73c-32.54,1.37-64.49-23.83-71.81-56.63-9.51-42.59,18-83.11,61.05-89.8a38.91,38.91,0,0,1,10.78-.61q0,9.75,0,19.5a3.09,3.09,0,0,0-.12.75c-1.9.28-3.22,1.54-4.54,2.77A104,104,0,0,0,53.6,67.11C49.25,76.54,47.24,86.46,49,96.69c2.1,12.2,9.85,20.7,20.27,26.6,7.34,4.17,11.11,9.77,10.32,18.23-.17,1.81.11,3.1,2.39,2.64A3.15,3.15,0,0,0,82.08,144.58Z"/><path class="cls-3" d="M82,31.52a3.09,3.09,0,0,1,.12-.75,3.44,3.44,0,0,1,3.3,2.69c4.12,14,13.18,25.16,21.48,36.75,4.2,5.86,8.36,11.74,10.32,18.85,2.23,8.11-.09,15-5.46,21.11-5.09,5.83-11.34,10.21-18,14-6.46,3.66-9.73,8.82-9.18,16.29.14,1.93.51,4-2.47,4.14a3.15,3.15,0,0,1-.09-.42Z"/><path class="cls-4" d="M82,31.52l0,112.64c-2.28.46-2.56-.83-2.39-2.64.79-8.46-3-14.06-10.32-18.23-10.42-5.9-18.17-14.4-20.27-26.6-1.77-10.23.24-20.15,4.59-29.58A104,104,0,0,1,77.42,34.29C78.74,33.06,80.06,31.8,82,31.52Z"/></g></svg>