<svg xmlns="http://www.w3.org/2000/svg" viewBox="0 0 168 168"><defs><style>.cls-1{fill:#543f2b;}.cls-2{fill:#755d46;}.cls-3{fill:#916a4d;}</style></defs><g id="Calque_4" data-name="Calque 4"><path class="cls-1" d="M157.71,85c-.07,40.24-32.95,73.55-72.59,73.53-41.86,0-74.9-32.66-74.83-73.9C10.37,43.76,43.35,11.12,84.66,11,124.74,10.84,157.78,44.3,157.71,85ZM84,100.91c13.11,2.43,22.14-13.1,17.9-24.32C99,69,94.46,65.82,84,65.82c-7,.79-11,5.22-13.69,11.28C65.49,88,74,100.82,84,100.91Zm46.93-35.07a12.77,12.77,0,0,0-8.77,2.4c-8.22,6.07-12.21,21.67-8,31,3.1,6.94,10.72,9.72,15.51,5.49a43.31,43.31,0,0,0,14.11-23.52C145.51,73.11,139.56,65.86,130.91,65.84ZM88.28,129.23c-1,15.32,10.59,19.77,18.64,16.44,7.55-3.12,12.38-11.94,11.14-20.84-1.27-9.1-9.14-17.43-17.09-18.07-5.54-.45-9.1,1.54-10.11,6.44C89.54,119.54,88.78,126,88.28,129.23ZM37,52.56C37,62.2,44,69.16,53.91,69.18c10.59,0,17.34-6.7,18.07-18.64.53-8.6-7.28-16.6-16-16.18C44.1,34.91,36.87,43.25,37,52.56Zm15.48,71.75c7.09,0,11.58-3.14,13.85-9.72,2.72-7.86-.94-17-8.67-21.36-9.4-5.35-18-3-23.89,3.19-2.33,2.46-4,5.73-3.29,9.52C32.26,115.47,42.82,124.3,52.52,124.31Zm47.69-68.48c8.09,0,12.92-5,12.91-13.43,0-7.46-4.56-12.31-11.6-12.39S87.15,37.06,87.29,44.15C87.44,51.46,94,56.69,100.21,55.83Z"/><path class="cls-2" d="M130.91,65.84c8.65,0,14.6,7.27,12.81,15.4a43.31,43.31,0,0,1-14.11,23.52c-4.79,4.23-12.41,1.45-15.51-5.49-4.17-9.36-.18-25,8-31A12.77,12.77,0,0,1,130.91,65.84Z"/><path class="cls-2" d="M88.28,129.23c.5-3.24,1.26-9.69,2.58-16,1-4.9,4.57-6.89,10.11-6.44,8,.64,15.82,9,17.09,18.07,1.24,8.9-3.59,17.72-11.14,20.84C98.87,149,87.25,144.55,88.28,129.23Z"/><path class="cls-3" d="M37,52.56C36.87,43.25,44.1,34.91,56,34.36c8.75-.42,16.56,7.58,16,16.18C71.25,62.48,64.5,69.2,53.91,69.18,44,69.16,37,62.2,37,52.56Z"/><path class="cls-3" d="M52.52,124.31c-9.7,0-20.26-8.84-22-18.37-.68-3.79,1-7.06,3.29-9.52,5.85-6.18,14.49-8.54,23.89-3.19,7.73,4.38,11.39,13.5,8.67,21.36C64.1,121.17,59.61,124.32,52.52,124.31Z"/><path class="cls-2" d="M84,65.82c10.49,0,15,3.14,17.91,10.77,4.24,11.22-4.79,26.75-17.9,24.32Q84,83.38,84,65.82Z"/><path class="cls-2" d="M100.21,55.83c-6.19.86-12.77-4.37-12.92-11.68-.14-7.09,7.14-14.21,14.23-14.14s11.58,4.93,11.6,12.39C113.13,50.81,108.3,55.83,100.21,55.83Z"/><path class="cls-3" d="M84,65.82q0,17.55,0,35.09C74,100.82,65.49,88,70.28,77.1,72.94,71,77,66.61,84,65.82Z"/></g></svg>