<svg xmlns="http://www.w3.org/2000/svg" viewBox="0 0 168 168"><defs><style>.cls-1{fill:#1fafe1;}.cls-2{fill:#6bc9f1;}.cls-3{fill:#fefefe;}</style></defs><g id="Calque_6" data-name="Calque 6"><path class="cls-1" d="M84.2,10.58C117.33,9.42,148.86,34.7,156,68.18a73.72,73.72,0,0,1-62.76,89,89.85,89.85,0,0,1-9.15.3l.06-20.07c4.32-1.1,4-4.75,4.16-8.15a6.83,6.83,0,0,1,1.3.5c2.33,1.7,4.68,2,6.63-.39s1.06-4.67-.94-6.65c-1.68-1.67-3.31-3.38-5-5A5.79,5.79,0,0,1,88.11,113c.13-6,.12-12,0-17.92,0-2.72.54-3.69,3.21-2a62.79,62.79,0,0,0,8,4.51c6.73,2.93,11.73,7.09,12.16,15.06a5.51,5.51,0,0,0,.86,2.32,4.2,4.2,0,0,0,4.18,2.21,4,4,0,0,0,3.67-2.91,33.61,33.61,0,0,0,.73-3.72c3.18,1.13,6.55,3.73,8.93-.43,2.69-4.71-2.34-5.85-4.65-8.28,2.95-1.25,5.44-2.77,4.19-6.24-1.3-3.62-4.18-3.44-7.26-2.43-2,.64-4,1.11-6,1.64a5.82,5.82,0,0,1-4.79-.48c-5.13-3.07-10.31-6-15.52-9-2.11-1.17-1.83-2,0-3.06,5.08-2.86,10.18-5.71,15.16-8.74a6.16,6.16,0,0,1,5.84-.77,51.09,51.09,0,0,0,7.66,1.92c2.27.45,4.2-.21,5.12-2.52s.09-4.33-2.14-5.61c-.6-.34-1.3-.52-1.44-1.46,2.44-1.91,6.51-3.3,4.19-7.59-2.48-4.57-5.92-1.68-9.18-.33a15.13,15.13,0,0,1-.21-1.78c.09-2.75-1-4.59-3.9-4.92s-4.34,1.33-5,3.9c-.54,2-1.12,4-1.64,6-.47,1.87-.74,3.76-2.73,4.88Q99.19,70,90.93,74.88c-2.33,1.38-2.85.48-2.79-1.8a72.74,72.74,0,0,0,0-9.57c-.81-7.34.49-13.69,7.13-18a6,6,0,0,0,1.51-2,4.09,4.09,0,0,0-.34-4.69,3.73,3.73,0,0,0-4.05-1.54,27.33,27.33,0,0,0-4,1.43c-.12-3.39-.1-6.88-4.23-8.09Q84.16,20.6,84.2,10.58Z"/><path class="cls-2" d="M84.2,10.58q0,10-.07,20c-5.15.31-4.92,4.28-5.19,8.08-.84-.41-1.44-.71-2-1-2.28-1-4.38-.86-6,1.2s-1,4.21.64,6c1.39,1.54,3,2.92,4.36,4.46,1.17,1.3,3.13,2.16,3.15,4.19.08,7.11,0,14.23,0,22-3.4-1.94-6.05-3.68-8.9-5C62.86,67,56.4,62.92,56,53.63a3.83,3.83,0,0,0-.87-1.86A4.37,4.37,0,0,0,48,51.62c-1.05,1.39-1,3.13-1.33,4.74l-.06.07A7,7,0,0,1,45,55.92c-2.71-1.67-5.5-2.11-7.21,1-1.55,2.82-.59,5.38,2.46,6.92a19.4,19.4,0,0,1,1.86,1.22,6.44,6.44,0,0,1-1.06.76c-3.12,1.28-3.67,3.79-2.59,6.51s3.54,2.79,6,2.14,4.83-1.27,7.23-2a5.34,5.34,0,0,1,4.41.42c5.4,3.15,10.82,6.28,16.27,9.34,2,1.09,2.1,2,.07,3.09-4.11,2.32-8.34,4.5-12.24,7.14C56.54,95,53,96.15,48.68,94.14A18.11,18.11,0,0,0,43,93a3.93,3.93,0,0,0-4.57,2.8,4.45,4.45,0,0,0,2,5.44c.61.39,1.79.18,1.58,1.67-3,1.53-6.13,3.62-4,7.59,2.41,4.39,6,1.74,9.37.25-.11,3.33,0,6.39,4.06,6.67,4.2.29,4.78-2.86,5.61-5.91.72-2.65.35-6.28,2.51-7.76,6.09-4.15,12.67-7.6,19.59-11.64,0,3.89-.17,6.82,0,9.72.59,8.21.62,16.15-7.57,21.23a3.82,3.82,0,0,0-1,1.34,4.16,4.16,0,0,0,.72,5.35,3.91,3.91,0,0,0,4.92,1c.83-.44,1.65-.9,2.72-1.49.08,4,0,7.83,5.16,8.1l-.06,20.07c-38,1.05-71.2-30-73.7-68.24A74,74,0,0,1,76.7,10.69,75,75,0,0,1,84.2,10.58Z"/><path class="cls-3" d="M84.19,137.37c-5.18-.27-5.08-4.14-5.16-8.1-1.07.59-1.89,1-2.72,1.49a3.91,3.91,0,0,1-4.92-1,4.16,4.16,0,0,1-.72-5.35,3.82,3.82,0,0,1,1-1.34c8.19-5.08,8.16-13,7.57-21.23-.21-2.9,0-5.83,0-9.72-6.92,4-13.5,7.49-19.59,11.64-2.16,1.48-1.79,5.11-2.51,7.76-.83,3-1.41,6.2-5.61,5.91-4-.28-4.17-3.34-4.06-6.67-3.42,1.49-7,4.14-9.37-.25-2.17-4,1-6.06,4-7.59.21-1.49-1-1.28-1.58-1.67a4.45,4.45,0,0,1-2-5.44A3.93,3.93,0,0,1,43,93a18.11,18.11,0,0,1,5.68,1.15c4.32,2,7.86.87,11.57-1.64,3.9-2.64,8.13-4.82,12.24-7.14,2-1.14,1.89-2-.07-3.09C67,79.21,61.55,76.08,56.15,72.93a5.34,5.34,0,0,0-4.41-.42c-2.4.69-4.82,1.33-7.23,2s-5,.55-6-2.14-.53-5.23,2.59-6.51a6.44,6.44,0,0,0,1.06-.76,19.4,19.4,0,0,0-1.86-1.22c-3-1.54-4-4.1-2.46-6.92,1.71-3.11,4.5-2.67,7.21-1a7,7,0,0,0,1.56.51l.45.32-.39-.39C47,54.75,46.91,53,48,51.62a4.37,4.37,0,0,1,7.12.15A3.83,3.83,0,0,1,56,53.63C56.4,62.92,62.86,67,70.22,70.52c2.85,1.35,5.5,3.09,8.9,5,0-7.74,0-14.86,0-22,0-2-2-2.89-3.15-4.19-1.39-1.54-3-2.92-4.36-4.46-1.65-1.81-2.26-3.89-.64-6s3.67-2.24,6-1.2c.61.28,1.21.58,2,1,.27-3.8,0-7.77,5.19-8.08,4.13,1.21,4.11,4.7,4.23,8.09a27.33,27.33,0,0,1,4-1.43,3.73,3.73,0,0,1,4.05,1.54,4.09,4.09,0,0,1,.34,4.69,6,6,0,0,1-1.51,2c-6.64,4.36-7.94,10.71-7.13,18a72.74,72.74,0,0,1,0,9.57c-.06,2.28.46,3.18,2.79,1.8q8.25-4.86,16.61-9.55c2-1.12,2.26-3,2.73-4.88.52-2,1.1-4,1.64-6,.69-2.57,2.13-4.22,5-3.9s4,2.17,3.9,4.92a15.13,15.13,0,0,0,.21,1.78c3.26-1.35,6.7-4.24,9.18.33,2.32,4.29-1.75,5.68-4.19,7.59.14.94.84,1.12,1.44,1.46,2.23,1.28,3.11,3.15,2.14,5.61s-2.85,3-5.12,2.52a51.09,51.09,0,0,1-7.66-1.92,6.16,6.16,0,0,0-5.84.77c-5,3-10.08,5.88-15.16,8.74-1.88,1.06-2.16,1.89,0,3.06,5.21,2.92,10.39,5.89,15.52,9a5.82,5.82,0,0,0,4.79.48c2-.53,4.05-1,6-1.64,3.08-1,6-1.19,7.26,2.43,1.25,3.47-1.24,5-4.19,6.24,2.31,2.43,7.34,3.57,4.65,8.28-2.38,4.16-5.75,1.56-8.93.43a33.61,33.61,0,0,1-.73,3.72,4,4,0,0,1-3.67,2.91,4.2,4.2,0,0,1-4.18-2.21,5.51,5.51,0,0,1-.86-2.32c-.43-8-5.43-12.13-12.16-15.06a62.79,62.79,0,0,1-8-4.51c-2.67-1.67-3.25-.7-3.21,2,.11,6,.12,12,0,17.92a5.79,5.79,0,0,0,2.18,4.67c1.74,1.6,3.37,3.31,5,5,2,2,2.87,4.24.94,6.65s-4.3,2.09-6.63.39a6.83,6.83,0,0,0-1.3-.5C88.14,132.62,88.51,136.27,84.19,137.37Z"/><path class="cls-2" d="M46.63,56.36l.39.39-.45-.32Z"/></g></svg>