<svg xmlns="http://www.w3.org/2000/svg" viewBox="0 0 168 168"><defs><style>.cls-1{fill:#f28c24;}.cls-2{fill:#f4ba1b;}.cls-3{fill:#755d46;}</style></defs><g id="Calque_13" data-name="Calque 13"><path class="cls-1" d="M157.49,76.36q0,7.58,0,15.15c-2.48,31.7-28.84,60.08-60.35,65a53.55,53.55,0,0,1-13.25.85q0-10.8-.08-21.62c2.76-.21,5.6-.1,8.28-.69,17.25-3.85,29.1-18,30-36.45.91-19-3.78-36.7-15-52.18C101.42,38.72,94.63,32,83.85,32.19l.07-21.59c31.91-1.81,63.89,22.88,71.79,55.52C156.53,69.48,156.91,72.94,157.49,76.36Z"/><path class="cls-2" d="M83.92,10.6q0,10.8-.07,21.59c-8.63.63-15.29,5-20.43,11.53-11.75,15-16.83,32.15-17.09,51.1C46,116.71,61,135.56,83.83,135.76q0,10.81.08,21.62C51,158.87,18.7,132.88,12,99.51c-8.2-41.07,16.78-79,57.82-87.69A46.13,46.13,0,0,1,83.92,10.6Z"/><path class="cls-3" d="M83.83,135.76c-22.82-.2-37.8-19-37.5-40.94.26-18.95,5.34-36.13,17.09-51.1,5.14-6.55,11.8-10.9,20.43-11.53C94.63,32,101.42,38.72,107,46.44c11.26,15.48,15.95,33.16,15,52.18-.87,18.42-12.72,32.6-30,36.45C89.43,135.66,86.59,135.55,83.83,135.76Z"/></g></svg>