<svg xmlns="http://www.w3.org/2000/svg" viewBox="0 0 168 168"><defs><style>.cls-1{fill:#901c1c;}.cls-2{fill:#b92527;}.cls-3{fill:#fefefe;}.cls-4{fill:#755d46;}</style></defs><g id="Calque_10" data-name="Calque 10"><path class="cls-1" d="M83.57,10.49c27.34.24,48.61,11.93,63.09,34.87C176.42,92.54,143.5,155,87.72,157.7c-1.38.07-2.77-.06-4.16-.1q0-16.93,0-33.88c1.14-.36,2.16.13,3.23.42,11.93,3.2,23.88,6.32,35.79,9.57,3.24.88,6,.72,7-2.94s-1.54-5.2-4.68-6c-5.1-1.33-10.19-2.68-15.27-4.09-2-.55-4.2-.7-6.55-2.36,7.86-2.1,15-4,22.26-6,3.09-.82,5.15-2.53,4.24-5.93s-3.35-4-6.54-3c-2.91.92-5.89,1.62-8.86,2.33-10.22,2.45-20.19,5.95-30.59,7.71,0-2.73,0-5.45,0-8.17,1.92-.3,3.86-.5,5.75-.93,5.85-1.33,10.56-4.36,13.1-9.93a16.41,16.41,0,0,1,3.81-5.28C124,72.35,116.74,42.23,93.28,35.27a87.42,87.42,0,0,0-9.74-1.76Z"/><path class="cls-2" d="M83.54,105.3c0,2.72,0,5.44,0,8.17a12.3,12.3,0,0,1-1.63-.22c-12.35-3.27-24.7-6.49-37-9.86-3.2-.88-5.67-.42-6.56,3s1,5.21,4.18,6c1.89.46,3.77,1,5.65,1.47l16.07,4.43a3.19,3.19,0,0,1-2,1.32l-20.48,5.59c-3,.81-4.16,2.84-3.44,5.67s2.87,3.92,5.78,3.23c1.08-.26,2.14-.57,3.22-.86l36.22-9.47q0,16.93,0,33.88C53.65,158.91,23.74,137.2,13.83,107-1.44,60.4,32.5,11.92,81.5,10.36c.69,0,1.38.09,2.07.13l0,23c-1.1.18-2.19.36-3.29.52-13.51,2-22.78,9.37-26.9,22.34s-.62,24.33,9.21,33.74c.6.57,1.44,1.08,1.68,1.78C67.43,101.06,74.71,104.28,83.54,105.3Z"/><path class="cls-3" d="M83.54,105.3c-8.83-1-16.11-4.24-19.3-13.41-.24-.7-1.08-1.21-1.68-1.78-9.83-9.41-13.34-20.73-9.21-33.74S66.74,36,80.25,34c1.1-.16,2.19-.34,3.29-.52a87.42,87.42,0,0,1,9.74,1.76c23.46,7,30.67,37.08,12.92,53.89a16.41,16.41,0,0,0-3.81,5.28c-2.54,5.57-7.25,8.6-13.1,9.93C87.4,104.8,85.46,105,83.54,105.3ZM79.13,65c-.21-3.18-.67-6.32-2.61-9-2.5-3.46-6-3.44-8.51,0-3.27,4.44-3.27,13.66,0,18.09,2.55,3.45,6,3.47,8.51,0C78.45,71.34,78.9,68.2,79.13,65Zm23.32-.13c-.22-3.06-.61-6.08-2.4-8.7-2.57-3.73-6.16-3.75-8.79-.08-3.19,4.44-3.23,13.25-.07,17.78,2.67,3.84,6.46,3.75,9-.24C101.92,71,102.28,67.92,102.45,64.85Zm-22,15.73c-1.11.07-1.3,1-1.43,1.74-.16,1,0,2.19,1,2.47,1.29.36,1.5-.94,1.63-1.84A2.14,2.14,0,0,0,80.43,80.58Zm8.73,2.11c-.23-.94-.31-2.15-1.45-2.19-1.4,0-1.59,1.25-1.62,2.32s.36,2.1,1.38,2.16C88.89,85.06,88.92,83.69,89.16,82.69Z"/><path class="cls-3" d="M83.55,123.72l-36.22,9.47c-1.08.29-2.14.6-3.22.86-2.91.69-5-.34-5.78-3.23s.49-4.86,3.44-5.67l20.48-5.59a3.19,3.19,0,0,0,2-1.32l-16.07-4.43c-1.88-.51-3.76-1-5.65-1.47-3.18-.76-5.05-2.62-4.18-6s3.36-3.86,6.56-3c12.32,3.37,24.67,6.59,37,9.86a12.3,12.3,0,0,0,1.63.22c10.4-1.76,20.37-5.26,30.59-7.71,3-.71,6-1.41,8.86-2.33,3.19-1,5.65-.38,6.54,3s-1.15,5.11-4.24,5.93c-7.21,1.9-14.4,3.85-22.26,6,2.35,1.66,4.54,1.81,6.55,2.36,5.08,1.41,10.17,2.76,15.27,4.09,3.14.82,5.67,2.29,4.68,6s-3.73,3.82-7,2.94c-11.91-3.25-23.86-6.37-35.79-9.57C85.71,123.85,84.69,123.36,83.55,123.72Z"/><path class="cls-2" d="M79.13,65c-.23,3.22-.68,6.36-2.61,9-2.51,3.49-6,3.47-8.51,0C64.74,69.62,64.74,60.4,68,56c2.53-3.43,6-3.45,8.51,0C78.46,58.66,78.92,61.8,79.13,65Z"/><path class="cls-1" d="M102.45,64.86c-.17,3.06-.53,6.09-2.24,8.75-2.56,4-6.35,4.08-9,.24-3.16-4.53-3.12-13.34.07-17.78,2.63-3.67,6.22-3.65,8.79.08C101.84,58.77,102.23,61.79,102.45,64.86Z"/><path class="cls-2" d="M80.43,80.58A2.14,2.14,0,0,1,81.63,83c-.13.9-.34,2.2-1.63,1.84-1-.28-1.16-1.47-1-2.47C79.13,81.53,79.32,80.65,80.43,80.58Z"/><path class="cls-4" d="M89.16,82.69c-.24,1-.27,2.37-1.69,2.29-1-.06-1.4-1.2-1.38-2.16s.22-2.36,1.62-2.32C88.85,80.54,88.93,81.75,89.16,82.69Z"/></g></svg>