<svg xmlns="http://www.w3.org/2000/svg" viewBox="0 0 168 168"><defs><style>.cls-1{fill:#b32384;}.cls-2{fill:#f28c24;}.cls-3{fill:#f4ba1b;}</style></defs><g id="Calque_12" data-name="Calque 12"><path class="cls-1" d="M83.94,157.61c-41.48.11-75.32-34.37-73.71-77,1.51-39.92,36-71.34,77.39-70,38.89,1.23,71.51,36,70.16,74.76C156.36,126.23,123.06,158.85,83.94,157.61ZM83.69,43.5a8.35,8.35,0,0,0-1.64-.2C57.26,45.2,38.32,57.45,23.49,76.68c-4.86,6.3-4.63,8.73.21,15.24a84.31,84.31,0,0,0,26.82,23.41c10.28,5.75,21.13,9.77,33.19,9.35a41.85,41.85,0,0,0,5.82,0c23.28-3.27,41.37-15.15,55.25-33.72,4.39-5.88,4.14-8.13-.22-14.15C136.5,65.67,126.09,57.33,114,51A63,63,0,0,0,83.69,43.5Z"/><path class="cls-2" d="M83.69,43.5A63,63,0,0,1,114,51c12.12,6.31,22.53,14.65,30.59,25.77,4.36,6,4.61,8.27.22,14.15-13.88,18.57-32,30.45-55.25,33.72a41.85,41.85,0,0,1-5.82,0c0-3.47,0-7,0-10.42,19.34-.67,34.39-9.72,46.55-24.12,4.15-4.91,4.09-7,.23-11.74-12.09-14.77-27.35-23.63-46.76-24.55C83.72,50.4,83.71,47,83.69,43.5Z"/><path class="cls-3" d="M83.69,43.5c0,3.45,0,6.9,0,10.35-19.14,1-34.16,9.82-46.22,24.2-4.15,4.94-4.29,6.76-.24,11.7,12,14.62,27.1,23.63,46.44,24.51,0,3.47,0,6.95,0,10.42-12.06.42-22.91-3.6-33.19-9.35A84.31,84.31,0,0,1,23.7,91.92c-4.84-6.51-5.07-8.94-.21-15.24C38.32,57.45,57.26,45.2,82.05,43.3A8.35,8.35,0,0,1,83.69,43.5Z"/><path class="cls-1" d="M83.72,114.26c-19.34-.88-34.43-9.89-46.44-24.51-4.05-4.94-3.91-6.76.24-11.7C49.58,63.67,64.6,54.81,83.74,53.85c19.41.92,34.67,9.78,46.76,24.55,3.86,4.72,3.92,6.83-.23,11.74C118.11,104.54,103.06,113.59,83.72,114.26Zm0-47.8A17.37,17.37,0,0,0,66.14,83.64C66,93.85,73.29,101.37,83.7,101.7c9.56.57,18-7.37,18.29-17.32S94,66.36,83.76,66.46Z"/><path class="cls-2" d="M83.76,66.46c10.28-.1,18.57,8,18.23,17.92S93.26,102.27,83.7,101.7Z"/><path class="cls-3" d="M83.76,66.46,83.7,101.7C73.29,101.37,66,93.85,66.14,83.64A17.37,17.37,0,0,1,83.76,66.46Z"/></g></svg>