<svg xmlns="http://www.w3.org/2000/svg" viewBox="0 0 168 168"><defs><style>.cls-1{fill:#8c7f73;}.cls-2{fill:#755d46;}</style></defs><g id="Calque_5" data-name="Calque 5"><path class="cls-1" d="M157.76,86c.31,39.54-32.65,73.6-71.52,73.91-41.93.34-75.42-31.75-76-72.37C9.7,49.06,39.5,12.37,85.34,12.65,124.37,12.89,157,44.11,157.76,86Zm-74-39.35V58.75q0,32.27,0,64.55c0,1.46-.87,3.43,1.66,4.06,4,1,9.77-.7,12-4.22,6.86-11.06,13.51-22.26,20.24-33.4a6.51,6.51,0,0,0,.15-7.08c-2.53-4.46-5.16-8.87-7.41-13.47-2.16-4.41-5.53-6-10.27-6.14a8.78,8.78,0,0,1-8.3-5C89.73,54.22,88.6,49.6,83.72,46.64Zm29.62,79.15A55.11,55.11,0,0,0,129,122.61c4.72-1.55,5.7-4,4.1-8.69a92.62,92.62,0,0,0-5.93-13.26c-.62-1.17-.85-3-2.53-3s-2.46,1.64-3.24,2.93c-3.84,6.41-7.63,12.85-11.46,19.26-.92,1.53-2.31,3.14-1.35,4.89S111.59,125.53,113.34,125.79Zm-13.73-75c.07,4.37,2.62,8.11,5.53,8.08,3.45,0,8.72-5.15,8.6-8.36s-4.81-7.38-8.35-7.36S99.55,46.34,99.61,50.76Z"/><path class="cls-2" d="M65.9,57.76c9.08-3.48,6.71-10.4,17.82-11.12,3.32,0,6,7.58,8.06,11.38a8.78,8.78,0,0,0,8.3,5c4.74.09,8.11,1.73,10.27,6.14,2.25,4.6,4.88,9,7.41,13.47a6.51,6.51,0,0,1-.15,7.08c-6.73,11.14-13.38,22.34-20.24,33.4-2.18,3.52-7.93,5.22-12,4.22-2.53-.63-48.61.56-52.58-2.54S41.51,77.39,65.9,57.76Z"/><path class="cls-2" d="M113.34,125.79c-1.75-.26-3.83.7-4.78-1s.43-3.36,1.35-4.89c3.83-6.41,7.62-12.85,11.46-19.26.78-1.29,1.6-2.88,3.24-2.93s1.91,1.8,2.53,3a92.62,92.62,0,0,1,5.93,13.26c1.6,4.7.62,7.14-4.1,8.69A55.11,55.11,0,0,1,113.34,125.79Z"/><path class="cls-2" d="M99.61,50.76c-.06-4.42,2.36-7.61,5.78-7.64s8.24,4.11,8.35,7.36-5.15,8.33-8.6,8.36C102.23,58.87,99.68,55.13,99.61,50.76Z"/></g></svg>