<svg xmlns="http://www.w3.org/2000/svg" viewBox="0 0 168 168"><defs><style>.cls-1{fill:#543f2b;}.cls-2{fill:#755d46;}.cls-3{fill:#8c7f73;}</style></defs><g id="Calque_9" data-name="Calque 9"><path class="cls-1" d="M157.94,90.16c-.81,3.88-1.51,7.79-2.44,11.64-8.21,34.05-39.44,57.2-75.31,55.87-34-1.26-63.64-27.6-69.15-61.5A73.86,73.86,0,0,1,73.37,11.06c40.85-6,78.51,22.8,83.78,64,.09.66-.08,1.42.79,1.71ZM83.47,145.91a25.61,25.61,0,0,0,3.29-.28c6.41-1.36,11.56-5.3,17.07-8.47,6.75-3.88,7.53-5.83,6.45-13.44-.35-2.42-1.36-3.21-3.65-1.87-3.95,2.32-7.85,4.75-11.94,6.8-3.66,1.83-6.69,5.14-11.23,5A10.81,10.81,0,0,1,78,131.84c-5.73-3.38-11.56-6.62-17.33-9.94-1.14-.66-2.21-1.3-3.28,0-1.76,2.2-.32,11.43,2.23,13,5.1,3.09,10.23,6.16,15.52,8.88C77.69,145.1,80.35,146.66,83.47,145.91ZM82.75,121c2.14,1.46,2.64-.62,3.27-1.71q14.39-24.79,28.63-49.67c2.14-3.73,1.66-4.48-2.77-4.49-9.45,0-18.9,0-28.35,0s-18.89-.07-28.33,0c-3.58,0-4.41,1.26-2.68,4.24Q67.57,95.25,82.75,121ZM27.67,73c-1.22,5.74.33,11.53,8,14.52,3.25,1.26,4.3.94,4.35-2.67.09-6.26.26-12.52,0-18.76-.25-5.1,1.79-8.4,6.19-10.76,5.38-2.88,10.61-6.06,15.9-9.11,1.34-.77,2.92-1.43,2-3.45C62.71,39.9,54.47,37,51.66,38.52c-5.22,2.9-10.41,5.86-15.46,9-4.33,2.72-6.68,6.88-7.78,11.85C27.54,63.4,27.78,67.41,27.67,73ZM127.9,74.67c0,3.74,0,7.49,0,11.24,0,1.11,0,2.25,1.55,2.48,2.73.38,10-5.61,10.08-8.44.06-5.83,0-11.66,0-17.49a15.67,15.67,0,0,0-5-11.91c-5.84-5.48-13.08-8.78-20-12.51-1.54-.82-3-.24-4.34.54q-2.52,1.45-5,2.94c-2.94,1.74-3,2.91-.07,4.62,3.21,1.91,6.28,4.21,9.72,5.59C125.3,56,130.86,62.82,127.9,74.67Z"/><path class="cls-2" d="M83.53,65.19c9.45,0,18.9,0,28.35,0,4.43,0,4.91.76,2.77,4.49Q100.4,94.52,86,119.32c-.63,1.09-1.13,3.17-3.27,1.71,1.09-.79.85-2,.85-3Q83.57,91.6,83.53,65.19Z"/><path class="cls-3" d="M83.53,65.19q0,26.4.07,52.79c0,1.08.24,2.26-.85,3Q67.63,95.21,52.52,69.39c-1.73-3-.9-4.23,2.68-4.24C64.64,65.12,74.09,65.17,83.53,65.19Z"/><path class="cls-3" d="M27.67,73c.11-5.6-.13-9.61.75-13.6,1.1-5,3.45-9.13,7.78-11.85,5-3.18,10.24-6.14,15.46-9C54.47,37,62.71,39.9,64.08,42.78c1,2-.62,2.68-2,3.45-5.29,3.05-10.52,6.23-15.9,9.11C41.82,57.7,39.78,61,40,66.1c.3,6.24.13,12.5,0,18.76,0,3.61-1.1,3.93-4.35,2.67C28,84.54,26.45,78.75,27.67,73Z"/><path class="cls-2" d="M127.9,74.67c3-11.85-2.6-18.69-13.14-22.94-3.44-1.38-6.51-3.68-9.72-5.59-2.89-1.71-2.87-2.88.07-4.62q2.51-1.49,5-2.94c1.37-.78,2.8-1.36,4.34-.54,7,3.73,14.2,7,20,12.51a15.67,15.67,0,0,1,5,11.91c0,5.83.06,11.66,0,17.49,0,2.83-7.35,8.82-10.08,8.44-1.58-.23-1.54-1.37-1.55-2.48C127.88,82.16,127.9,78.41,127.9,74.67Z"/><path class="cls-2" d="M83.46,133.7c4.54.09,7.57-3.22,11.23-5,4.09-2.05,8-4.48,11.94-6.8,2.29-1.34,3.3-.55,3.65,1.87,1.08,7.61.3,9.56-6.45,13.44-5.51,3.17-10.66,7.11-17.07,8.47a25.61,25.61,0,0,1-3.29.28Q83.47,139.81,83.46,133.7Z"/><path class="cls-3" d="M83.46,133.7q0,6.11,0,12.21c-3.12.75-5.78-.81-8.29-2.1-5.29-2.72-10.42-5.79-15.52-8.88-2.55-1.55-4-10.78-2.23-13,1.07-1.35,2.14-.71,3.28,0,5.77,3.32,11.6,6.56,17.33,9.94A10.81,10.81,0,0,0,83.46,133.7Z"/></g></svg>