<svg id="Calque_1" data-name="Calque 1" xmlns="http://www.w3.org/2000/svg" viewBox="0 0 168 168"><defs><style>.cls-1{fill:#1fafe1;}.cls-2{fill:#1687b4;}.cls-3{fill:#fefefe;}.cls-4{fill:#6bc9f1;}</style></defs><path class="cls-1" d="M81.85,157.1c-33.76,1.25-66-24.94-72.53-58.88-7.63-39.78,16.75-77.45,56-86.51A61.12,61.12,0,0,1,81.87,10q0,16.23,0,32.45c0,1.34-.43,2.82.83,3.9L81,47.73C67.9,54.92,57,64.34,50.93,78.37,44.5,93.13,47,108,57.49,117.48c6.9,6.2,15.26,8.22,24.32,8Q81.82,141.29,81.85,157.1Z"/><path class="cls-2" d="M82.69,46.35c-1.26-1.08-.83-2.56-.83-3.9q0-16.22,0-32.45c30.29-.5,60.82,19.72,70.64,52.8,13.71,46.19-21.29,94.1-69,94.42-.55,0-1.1-.08-1.66-.12q0-15.81,0-31.62l-.11-.11c3,.65,5.84-.12,8.66-.75,13.84-3.11,24.5-16.24,22.62-31.37-.87-7-4.56-12.41-8.8-17.59-6.63-8.08-7.46-16.82-2.19-24.95a35.24,35.24,0,0,1,9.37-9.37c1.5-1.07,4.82-1.6,4.09-3.38-.86-2.1-3.93-.65-6-.69a4.26,4.26,0,0,0-.81.22C99.47,39,91,42.49,82.69,46.35Z"/><path class="cls-3" d="M81.81,125.48c-9.06.22-17.42-1.8-24.32-8C47,108,44.5,93.13,50.93,78.37,57,64.34,67.9,54.92,81,47.73c1,1.52.6,3.23.6,4.86q.08,36.39.09,72.78Z"/><path class="cls-4" d="M81.7,125.37q0-36.39-.09-72.78c0-1.63.41-3.34-.6-4.86l1.68-1.38C91,42.49,99.47,39,108.6,37.49a4.26,4.26,0,0,1,.81-.22c2.11,0,5.18-1.41,6,.69.73,1.78-2.59,2.31-4.09,3.38A35.24,35.24,0,0,0,102,50.71c-5.27,8.13-4.44,16.87,2.19,24.95,4.24,5.18,7.93,10.58,8.8,17.59,1.88,15.13-8.78,28.26-22.62,31.37C87.54,125.25,84.67,126,81.7,125.37Zm8.69-44.51c0,3.12,2.39,6.18,4.92,6.2,2.76,0,4.9-2.58,4.9-6.06,0-3.26-1.25-5.73-4.76-6.17C93,74.53,90.41,77.75,90.39,80.86Zm13.18,9c0-1.19-.43-2.27-1.84-2.21-1.16,0-1.51,1-1.54,2.09s.15,2.11,1.33,2.24C102.87,92.08,103.44,91.1,103.57,89.82Z"/><path class="cls-3" d="M90.39,80.86c0-3.11,2.57-6.33,5.06-6,3.51.44,4.76,2.91,4.76,6.17,0,3.48-2.14,6.09-4.9,6.06C92.78,87,90.36,84,90.39,80.86Z"/><path class="cls-3" d="M103.57,89.82c-.13,1.28-.7,2.26-2,2.12-1.18-.13-1.36-1.21-1.33-2.24s.38-2,1.54-2.09C103.14,87.55,103.53,88.63,103.57,89.82Z"/></svg>